<?xml version="1.0" encoding="iso-8859-1"?>
<!-- Generator: Adobe Illustrator 19.0.0, SVG Export Plug-In . SVG Version: 6.00 Build 0)  -->
<svg version="1.1" id="Layer_1" xmlns="http://www.w3.org/2000/svg" xmlns:xlink="http://www.w3.org/1999/xlink" x="0px" y="0px"
	 viewBox="0 0 512 512" style="enable-background:new 0 0 512 512;" xml:space="preserve">
<path style="fill:#7BCEFC;" d="M442.395,75.837c-47.549,0-71.581,10.296-94.821,20.252c-21.072,9.027-40.974,17.554-81.672,17.554
	c-40.733,0-60.649-8.529-81.733-17.558c-23.241-9.954-47.275-20.246-94.816-20.246v33.391v144.37v33.391
	c40.686,0,60.59,8.538,81.661,17.578c23.255,9.976,47.3,20.291,94.888,20.291c47.555,0,71.588-10.315,94.831-20.289
	c21.069-9.041,40.97-17.582,81.663-17.582h16.696V75.837H442.395z"/>
<path style="fill:#009DFF;" d="M347.574,192.733c-21.072,9.027-40.974,17.554-81.672,17.554c-40.733,0-60.649-8.529-81.733-17.558
	c-23.241-9.954-47.275-20.246-94.816-20.246v33.391v47.725v33.391c40.686,0,60.59,8.538,81.661,17.578
	c23.255,9.976,47.3,20.291,94.888,20.291c47.555,0,71.588-10.315,94.831-20.289c21.069-9.041,40.97-17.582,81.663-17.582h16.696
	V172.482h-16.696C394.846,172.482,370.814,182.777,347.574,192.733z"/>
<rect x="72.659" y="59.058" style="fill:#BA7400;" width="33.391" height="452.942"/>
<g>
	<rect x="89.355" y="59.058" style="fill:#804D00;" width="16.696" height="452.942"/>
	<path style="fill:#804D00;" d="M89.353,72.891c-20.096,0-36.445-16.349-36.445-36.445S69.257,0,89.353,0
		s36.445,16.348,36.445,36.444S109.449,72.891,89.353,72.891z"/>
</g>
<path style="fill:#4C3011;" d="M89.353,72.891c0-28.292,0-57.844,0-72.891c20.096,0,36.445,16.348,36.445,36.444
	S109.449,72.891,89.353,72.891z"/>
<g>
</g>
<g>
</g>
<g>
</g>
<g>
</g>
<g>
</g>
<g>
</g>
<g>
</g>
<g>
</g>
<g>
</g>
<g>
</g>
<g>
</g>
<g>
</g>
<g>
</g>
<g>
</g>
<g>
</g>
</svg>
